<?xml version="1.0" encoding="UTF-8" standalone="no" ?>

<svg xmlns="http://www.w3.org/2000/svg" xmlns:xlink="http://www.w3.org/1999/xlink" version="1.1" width="1105.9999999999998" height="1105.9999999999998" viewBox="50 200 950 400" xml:space="preserve">

<g transform="matrix(5.0576 0 0 5.0576 111.7599 383.779)"  >
<path style="stroke: rgb(51,51,51); stroke-width: 0.9449; stroke-dasharray: none; stroke-linecap: round; stroke-dashoffset: 0; stroke-linejoin: miter; stroke-miterlimit: 4; fill: rgb(51,51,51); fill-rule: evenodd; opacity: 1;"  transform=" translate(-12.925, -17.718)" d="M 5.75 35.418 L 0 35.418 L 0 0.718 L 5.65 0.718 L 5.65 3.968 L 6.5 3.968 Q 7.35 2.418 9.225 1.218 Q 11.1 0.018 14.6 0.018 Q 17.6 0.018 20.175 1.493 Q 22.75 2.968 24.3 5.818 Q 25.85 8.668 25.85 12.668 L 25.85 13.468 Q 25.85 17.468 24.3 20.318 Q 22.75 23.168 20.2 24.643 Q 17.65 26.118 14.6 26.118 Q 12.25 26.118 10.675 25.568 Q 9.1 25.018 8.125 24.118 Q 7.15 23.218 6.6 22.318 L 5.75 22.318 L 5.75 35.418 Z M 20.1 13.318 Q 20.1 17.068 18.075 19.093 Q 16.05 21.118 12.9 21.118 Q 9.8 21.118 7.725 19.093 Q 5.65 17.068 5.65 13.318 L 5.65 12.818 Q 5.65 9.018 7.725 7.018 Q 9.8 5.018 12.9 5.018 Q 16 5.018 18.05 7.018 Q 20.1 9.018 20.1 12.818 L 20.1 13.318 Z" stroke-linecap="round" />
</g>
<g transform="matrix(5.0576 0 0 5.0576 265.2576 360.2611)"  >
<path style="stroke: rgb(51,51,51); stroke-width: 0.9449; stroke-dasharray: none; stroke-linecap: round; stroke-dashoffset: 0; stroke-linejoin: miter; stroke-miterlimit: 4; fill: rgb(51,51,51); fill-rule: evenodd; opacity: 1;"  transform=" translate(-43.275, -13.068)" d="M 30.75 13.418 L 30.75 12.718 Q 30.75 8.718 32.425 5.868 Q 34.1 3.018 37 1.518 Q 39.9 0.018 43.5 0.018 Q 47.05 0.018 49.575 1.268 Q 52.1 2.518 53.65 4.693 Q 55.2 6.868 55.65 9.568 L 50.1 10.718 Q 49.9 9.168 49.15 7.893 Q 48.4 6.618 47.025 5.868 Q 45.65 5.118 43.65 5.118 Q 41.6 5.118 39.975 5.993 Q 38.35 6.868 37.425 8.618 Q 36.5 10.368 36.5 12.818 L 36.5 13.318 Q 36.5 15.768 37.425 17.493 Q 38.35 19.218 39.975 20.118 Q 41.6 21.018 43.65 21.018 Q 46.7 21.018 48.275 19.443 Q 49.85 17.868 50.25 15.368 L 55.8 16.668 Q 55.2 19.268 53.65 21.418 Q 52.1 23.568 49.575 24.843 Q 47.05 26.118 43.5 26.118 Q 39.9 26.118 37 24.618 Q 34.1 23.118 32.425 20.268 Q 30.75 17.418 30.75 13.418 Z" stroke-linecap="round" />
</g>
<g transform="matrix(5.0576 0 0 5.0576 422.2956 383.779)"  >
<path style="stroke: rgb(51,51,51); stroke-width: 0.9449; stroke-dasharray: none; stroke-linecap: round; stroke-dashoffset: 0; stroke-linejoin: miter; stroke-miterlimit: 4; fill: rgb(51,51,51); fill-rule: evenodd; opacity: 1;"  transform=" translate(-74.325, -17.718)" d="M 67.15 35.418 L 61.4 35.418 L 61.4 0.718 L 67.05 0.718 L 67.05 3.968 L 67.9 3.968 Q 68.75 2.418 70.625 1.218 Q 72.5 0.018 76 0.018 Q 79 0.018 81.575 1.493 Q 84.15 2.968 85.7 5.818 Q 87.25 8.668 87.25 12.668 L 87.25 13.468 Q 87.25 17.468 85.7 20.318 Q 84.15 23.168 81.6 24.643 Q 79.05 26.118 76 26.118 Q 73.65 26.118 72.075 25.568 Q 70.5 25.018 69.525 24.118 Q 68.55 23.218 68 22.318 L 67.15 22.318 L 67.15 35.418 Z M 81.5 13.318 Q 81.5 17.068 79.475 19.093 Q 77.45 21.118 74.3 21.118 Q 71.2 21.118 69.125 19.093 Q 67.05 17.068 67.05 13.318 L 67.05 12.818 Q 67.05 9.018 69.125 7.018 Q 71.2 5.018 74.3 5.018 Q 77.4 5.018 79.45 7.018 Q 81.5 9.018 81.5 12.818 L 81.5 13.318 Z" stroke-linecap="round" />
</g>
<g transform="matrix(5.0576 0 0 5.0576 608.7941 359.1232)"  >
<path style="stroke: rgb(51,51,51); stroke-width: 0.9449; stroke-dasharray: none; stroke-linecap: round; stroke-dashoffset: 0; stroke-linejoin: miter; stroke-miterlimit: 4; fill: rgb(51,51,51); fill-rule: evenodd; opacity: 1;"  transform=" translate(-111.2, -12.843)" d="M 99.1 25.418 L 93.35 25.418 L 93.35 0.718 L 99 0.718 L 99 3.468 L 99.85 3.468 Q 100.5 2.218 102.025 1.243 Q 103.55 0.268 106.1 0.268 Q 108.8 0.268 110.45 1.368 Q 112.1 2.468 112.95 4.168 L 113.75 4.168 Q 114.6 2.468 116.2 1.368 Q 117.8 0.268 120.75 0.268 Q 123.05 0.268 124.925 1.268 Q 126.8 2.268 127.925 4.218 Q 129.05 6.168 129.05 9.068 L 129.05 25.418 L 123.3 25.418 L 123.3 9.468 Q 123.3 7.318 122.15 6.193 Q 121 5.068 118.95 5.068 Q 116.7 5.068 115.375 6.543 Q 114.05 8.018 114.05 10.768 L 114.05 25.418 L 108.35 25.418 L 108.35 9.468 Q 108.35 7.318 107.2 6.193 Q 106.05 5.068 104 5.068 Q 101.7 5.068 100.4 6.543 Q 99.1 8.018 99.1 10.768 L 99.1 25.418 Z" stroke-linecap="round" />
</g>
<g transform="matrix(15.3182 0 0 12.9864 653.979 186.4549)"  >
<rect style="stroke: none; stroke-width: 1; stroke-dasharray: none; stroke-linecap: butt; stroke-dashoffset: 0; stroke-linejoin: miter; stroke-miterlimit: 4; fill: rgb(134,97,197); fill-rule: nonzero; opacity: 1;"  x="-21" y="-6" rx="2" ry="2" width="42" height="12" />
</g>
<g transform="matrix(12.8434 0 0 12.9864 846.9494 359.183)"  >
<rect style="stroke: none; stroke-width: 1; stroke-dasharray: none; stroke-linecap: butt; stroke-dashoffset: 0; stroke-linejoin: miter; stroke-miterlimit: 4; fill: rgb(134,97,197); fill-rule: nonzero; opacity: 1;"  x="-10" y="-6" rx="2" ry="2" width="20" height="12" />
</g>
</svg>